<?xml version="1.0" encoding="utf-8"?>
<!-- Generator: Adobe Illustrator 22.0.1, SVG Export Plug-In . SVG Version: 6.00 Build 0)  -->
<svg version="1.1" id="Layer_1" xmlns="https://www.w3.org/2000/svg" xmlns:xlink="https://www.w3.org/1999/xlink" x="0px" y="0px"
	 viewBox="0 0 752.4 222.3" style="enable-background:new 0 0 752.4 222.3;" xml:space="preserve">
<style type="text/css">
	.st0{fill:#C17048;}
	.st1{fill:#A7DCE2;}
	.st2{fill:#F9DC61;}
	.st3{fill:#8C4C3C;}
	.st4{fill:#E75143;}
	.st5{fill:#C97942;}
	.st6{fill:#43BFD8;}
	.st7{fill:#1E6166;}
	.st8{fill:#7DAA46;}
	.st9{fill:#0A252B;}
	.st10{fill:#FFFFFF;}
</style>
<g>
	<path class="st0" d="M57.5,136.8c-0.2,0-0.5-0.1-0.7-0.1c-0.1-0.1-3.1-1.3-5.8-4.8l-0.9-1.1v6.6c0,1.8,1.5,3.3,3.3,3.3h12.5
		c1.3,0,2.5-0.7,3.2-1.8c0.7-1.1,0.8-2.5,0.2-3.7c-2.2-4.7-6.5-9.6-13.4-15.4c-0.3-0.2-0.9-0.7-1.8-1.5c-1.1-0.9-2.2-1.7-3.3-2.6
		l-0.8-0.6v2c0,12.6,8,16.2,8.1,16.2c0.9,0.4,1.4,1.5,1,2.4C58.9,136.4,58.3,136.8,57.5,136.8z"/>
	<path class="st1" d="M35.3,182.5c0.3,0.4,0.7,0.6,1.2,0.6h0c0.9,0,1.6-0.7,1.6-1.5c0-0.4,0.1-0.8,0.1-1.2
		c1.5-12.4,13.9-21.7,23-28.5l0.8-0.6l-0.5-0.8c-3.7,1.5-7.7,3-11.7,4.4l-0.1,0c-1.4,0.5-2.8,1-4.2,1.5c-6.8,2.5-11.7,6-14.6,10.4
		c-2.4,3.6-2,8.4,0.9,11.9L35.3,182.5z"/>
	<path class="st1" d="M28.4,154.6c-0.2,0-0.5-0.1-0.7-0.1c-0.1-0.1-3.1-1.3-5.8-4.8l-0.9-1.1v19.2c0,1.3,0.7,2.4,1.8,3.1
		c0.3,0.2,0.6,0.3,1,0.3c0.8,0,1.6-0.5,1.8-1.3c1.6-5.2,6.2-12.3,18.8-16.9c1.4-0.5,2.8-1,4.3-1.5l0.1,0c2.8-1,6-2.1,9.2-3.4
		c1-0.4,1.3-1.3,1.2-2.1c-0.1-0.8-0.8-1.5-1.9-1.5H22.9l0.4,0.7c2.4,4.6,5.8,6.1,5.8,6.1c0.5,0.2,0.8,0.5,1,1c0.2,0.5,0.2,1,0,1.4
		C29.8,154.1,29.1,154.6,28.4,154.6z"/>
	<path class="st2" d="M82.2,53c-12.6,0-24,8.4-27.8,20.4c-0.5,1.6,0.3,3.4,1.8,4.1l37.1,17c0.8,0.4,1.7,0.6,2.6,0.6c0,0,0,0,0,0
		c1.1,0,2.3-0.3,3.2-0.9l9.6-5.9c1.5-1,2.5-2.6,2.6-4.4c0-0.6,0-1.1,0-1.7C111.3,66.1,98.2,53,82.2,53z"/>
	<path class="st3" d="M44.9,106.5l0.6,0.4l0.2-0.7c0.5-1.8,0.8-3.7,0.8-5.8l0-1.3l-0.9,1c-1.1,1.2-2.3,2.3-3.8,3.2l-0.6,0.3l0.5,0.4
		C42.7,104.8,43.7,105.6,44.9,106.5z"/>
	<path class="st4" d="M8.7,68.7l15,0.9c0.1,0,0.2,0,0.2,0c1.3,0,2.5-0.9,2.8-2.2c6.6-25.1,29.4-42.6,55.4-42.6
		c13.5,0,26.7,4.9,37.1,13.7c10.3,8.8,17.2,20.9,19.4,34.1c0.3,1.7,1.8,3,3.5,3c0.1,0,0.2,0,0.4,0c2.2-0.2,4.4-0.3,6.6-0.3h6.7
		c1,0,2-0.4,2.7-1.2c0.7-0.8,1-1.8,0.8-2.8c-2.6-18.4-11.8-35.4-25.9-47.7C119.3,11,101,4.1,82.2,4.1c-17.8,0-35.2,6.2-49.1,17.4
		C19.4,32.6,9.8,48.1,6,65.1c-0.2,0.8,0,1.7,0.5,2.4C7.1,68.2,7.9,68.6,8.7,68.7z"/>
	<path class="st5" d="M31.7,70c5.4,0.3,10.7,1.5,15.7,3.6l1.7,0.7l-0.4-0.5c0.6,0,1.1-0.3,1.5-0.7l0.1,0.5l0.5-1.6
		c4.4-13.4,17.2-22.7,31.2-22.7c18.1,0,32.8,14.7,32.8,32.9c0,0.4,0.1,0.7,0.4,0.9c0.2,0.2,0.6,0.4,0.9,0.4c0.2,0,0.4-0.1,0.6-0.2
		c5.5-2.9,11.4-5.1,17.4-6.4c0.7-0.1,1.1-0.8,1-1.4c-3.4-26.8-26.2-46.9-53.2-46.9c-24,0-45.3,16.1-51.7,39.3
		c-0.1,0.5-0.2,1.3,0.2,1.8c0,0,0.1,0.1,0.1,0.1L30.4,70L31.7,70z"/>
	<path class="st6" d="M48.9,197.9L48.9,197.9c0.7,0,1.2-0.5,1.2-1.2c0-0.5,0-1,0.1-1.5c1.7-19,24.9-38.2,40.3-51
		c2.9-2.4,5.5-4.5,7.5-6.3l0.9-0.8c2.8-2.7,3.8-5,3.1-6.8c-1.4-3.8-10.8-6.7-21.4-6.7h-9.3c-0.7,0-1.3,0.4-1.6,1.1
		c-0.3,0.7-0.1,1.4,0.5,1.9c2.4,2.2,5.5,5.7,6,10.1c0.5,4.1-1.1,8-4.9,11.7c-1.9,1.9-4.6,3.9-7.8,6.3c-8.6,6.4-20.3,15.2-21.6,26
		c-0.7,5.5,1.3,10.9,6,16.7C48.2,197.8,48.5,197.9,48.9,197.9z"/>
	<path class="st3" d="M27.1,73.5L19.4,73l-0.1,0c-0.7,0-1.3,0.4-1.6,1.1c-0.3,0.7-0.1,1.4,0.4,1.8c1.9,1.7,3.6,3.7,5,5.8
		c2.8,4.4,9.2,12.5,13.3,17.3c0.5,0.5,1,1.1,1.6,1.7l0.3,0.3l0.3-0.2l0.1-0.1l0.2-0.1c2.1-1.1,7.5-4.1,7.5-14.6c0-1,0.8-1.8,1.8-1.8
		l0.1,0c0.9,0.1,1.7,0.9,1.7,1.9c0,12.3,7.8,14.7,7.8,14.7c1,0.3,1.5,1.3,1.3,2.3c-0.2,0.8-0.9,1.3-1.8,1.3c-0.2,0-0.3,0-0.5-0.1
		c-0.1,0-3.2-0.9-6-4.2l-0.9-1l0.1,1.4c0.3,7.9,4.1,12.7,6.4,14.9l0.1,0.1c1.1,0.9,2.4,1.3,3.8,1.3h0c1.1,0,2.2-0.3,3.1-0.9l25-15.4
		c0.8-0.5,1.2-1.3,1.2-2.3c-0.1-0.9-0.6-1.7-1.4-2.1L47.8,77.8c-5.5-2.5-11.3-3.9-17.3-4.1L28,73.5C27.8,73.5,27.2,73.5,27.1,73.5z"
		/>
	<path class="st0" d="M6.9,140.6h9.9l0.1-0.4c0.4-1.7,0.5-3.5,0.5-5.4V131l-0.9,1.1c-2.7,3.5-5.6,4.8-5.8,4.8
		c-0.2,0.1-0.5,0.1-0.7,0.1c-0.7,0-1.4-0.4-1.7-1.1c-0.4-0.9,0-2,1-2.4c0.3-0.1,8-3.7,8.1-16l0-1.4l-0.9,1.1
		c-2.7,3.5-5.6,4.8-5.8,4.8c-0.2,0.1-0.5,0.1-0.7,0.1c-0.7,0-1.4-0.4-1.7-1.1c-0.4-0.9,0-2,1-2.4c0.3-0.1,8.1-3.8,8.1-16.2
		c0-1,0.8-1.8,1.8-1.8l0.1,0c0.9,0.1,1.7,0.9,1.7,1.9c0,12.5,8,16.1,8.1,16.1c0.9,0.4,1.4,1.5,1,2.4c-0.3,0.7-1,1.1-1.7,1.1
		c-0.2,0-0.5-0.1-0.7-0.1c-0.1-0.1-3.1-1.3-5.8-4.8l-0.9-1.1l0,1.4c0.1,12.4,8,15.9,8.1,16c0.9,0.4,1.4,1.5,1,2.4
		c-0.3,0.7-1,1.1-1.7,1.1c-0.2,0-0.5-0.1-0.7-0.1c-0.1-0.1-3.1-1.3-5.8-4.8L21,131v3.8c0,1.9,0.2,3.7,0.5,5.4l0.1,0.4h21.9
		c1.6,0,2.9-1.3,2.9-2.9v-6.9l-0.9,1.1c-2.7,3.5-5.6,4.8-5.8,4.8c-0.2,0.1-0.5,0.1-0.7,0.1c-0.7,0-1.4-0.4-1.7-1.1
		c-0.4-0.9,0-2,1-2.4c0.3-0.1,8.1-3.8,8.1-16.2v-3.8l-0.9,1.1c-2.7,3.5-5.6,4.8-5.8,4.8c-0.2,0.1-0.5,0.1-0.7,0.1
		c-0.7,0-1.4-0.4-1.7-1.1c-0.4-0.9,0-2,1-2.4c0.3-0.1,3-1.4,5.3-5.1l0.2-0.4l-0.3-0.3c-3.7-2.9-7.5-5.9-9.9-8.6
		c-4.2-4.9-10.6-13.1-13.6-17.7c-3.1-4.9-7.8-8.5-13.2-10.4c-0.2-0.1-0.4-0.1-0.6-0.1c-0.9,0-1.7,0.7-1.8,1.6
		c-0.2,2.4-0.3,4.9-0.3,7.3v55.7C4.1,139.3,5.4,140.6,6.9,140.6z"/>
	<path class="st7" d="M127,198.9l-0.6,0.4l0.6,0.4c2.1,1.4,3.9,3,5.5,4.8c0.3,0.3,0.7,0.5,1.1,0.5c0.4,0,0.7-0.1,1-0.4
		c0.3-0.3,0.5-0.6,0.5-1.1v-13.2l-0.9,1.4C131.7,195.5,128.9,197.7,127,198.9z"/>
	<path class="st7" d="M125.4,178.1c-0.2,0.1-0.5,0.1-0.7,0.1c-0.7,0-1.4-0.4-1.7-1.1c-0.4-0.9,0-2,1-2.4c0.3-0.2,3.4-1.6,6.2-5.4
		l0.6-0.8H75.5c-0.8,0-1.5,0.3-2,0.9c-0.5,0.5-0.7,1.3-0.6,2c0.2,1.7,1,3.4,2.2,5c0,0,0,0,0,0h0c0.6,0.8,1.7,1.8,3.6,3.5
		c1.6,1.2,3.6,2.4,5.9,3.5c7,3.4,14,5.5,20.7,7.6c6.2,1.9,12.1,3.7,17.2,6.3l0.4,0.2l0.2-0.3c0.2-0.3,0.5-0.5,0.8-0.6
		c0.5-0.2,11-5.1,11-22v-5.8l-0.9,1.4C130.4,175.9,125.6,178,125.4,178.1z"/>
	<path class="st7" d="M156.2,168.5h-13.3l0.6,0.8c3,4,6.2,5.4,6.2,5.4c0.9,0.4,1.4,1.5,1,2.4c-0.3,0.7-1,1.1-1.7,1.1
		c-0.2,0-0.5-0.1-0.7-0.1c-0.2-0.1-5-2.2-8.7-8l-0.9-1.4v5.8c0,17.1,10.9,21.9,11,22c0.9,0.4,1.4,1.5,1,2.4c-0.3,0.7-1,1.1-1.7,1.1
		c-0.2,0-0.5-0.1-0.7-0.1c-0.2-0.1-5-2.2-8.7-8l-0.9-1.4l0,26.5l0,0.1c0.2,0.7,0.8,1.2,1.6,1.2h16.9c1.6,0,2.9-1.3,2.9-2.9v-42.8
		C160.2,170.3,158.4,168.5,156.2,168.5z"/>
	<path class="st8" d="M156.7,99.3c-0.5,0-1,0.1-1.5,0.4l-4.9,2.4c-11.8,5.7-22.5,13.1-32.1,22l-16.9,15.8c-0.3,0.2-0.5,0.5-0.8,0.7
		l-21.2,19.9c-0.8,0.7-1,1.8-0.6,2.8c0.4,1,1.3,1.6,2.3,1.6h51.8l0.1-0.3c1.4-3.4,2.1-7.4,2.1-11.8v-5.2l-0.9,1.3
		c-3.3,5-7.3,6.5-7.5,6.5c-0.2,0.1-0.4,0.1-0.6,0.1c-0.8,0-1.5-0.5-1.7-1.2c-0.3-0.9,0.2-2,1.1-2.3c0.4-0.2,9.6-3.9,9.6-20.6
		c0-1,0.8-1.8,1.8-1.8l0.1,0c1,0.1,1.7,0.9,1.7,1.9c0,16.9,9.5,20.5,9.6,20.5c0.5,0.2,0.8,0.5,1,0.9c0.2,0.4,0.2,0.9,0.1,1.4
		c-0.3,0.7-1,1.2-1.7,1.2c-0.2,0-0.4,0-0.6-0.1c-0.2-0.1-4.2-1.5-7.5-6.5l-0.9-1.3v5.2c0,4.4,0.7,8.4,2.2,11.8l0.1,0.3h15.2
		c2.2,0,4-1.8,4-4v-58C160.2,100.8,158.6,99.3,156.7,99.3z"/>
	<path class="st3" d="M157.1,78.9h-8c-12,0-23.8,3.3-34,9.6L70.5,116c-0.8,0.5-1.2,1.4-0.9,2.4c0.3,0.9,1.1,1.5,2,1.5l38.4,0
		c4.4,0,8.8-1.6,12.3-4.4c8.1-6.6,17-12.3,26.4-16.8l7.5-3.6c2.4-1.2,4-3.7,4-6.4l0-6.7C160.2,80.3,158.8,78.9,157.1,78.9z"/>
	<path class="st1" d="M6.6,164.7l8.6,2.7c0.2,0.1,0.3,0.1,0.5,0.1h0c0.4,0,0.8-0.2,1.2-0.5c0.3-0.3,0.5-0.7,0.5-1.2v-17.3l-0.9,1.1
		c-2.7,3.5-5.6,4.8-5.8,4.8c-0.2,0.1-0.5,0.1-0.7,0.1c-0.7,0-1.4-0.4-1.7-1.1c-0.4-0.9,0-2,1-2.4c0.4-0.2,3.6-1.7,5.8-6.1l0.4-0.7
		H6.3c-1.2,0-2.1,1-2.1,2.1v15C4.1,162.9,5.1,164.3,6.6,164.7z"/>
	<path class="st8" d="M29.2,180.9c-2.7-3.3-6-5.9-9.8-7.9c-1.1-0.5-4-1.8-5.3-2.2l-4.6-1.4c-0.4-0.1-0.8-0.2-1.2-0.2
		c-2.3,0-4.2,1.9-4.2,4.2v41.8c0,1.6,1.3,2.9,2.9,2.9h47.6c1.1,0,2-0.6,2.5-1.6c0.5-1,0.3-2.1-0.4-2.9L29.2,180.9z"/>
	<path class="st7" d="M104.4,194.4c-1.9-0.6-3.8-1.2-5.8-1.8c-0.2-0.1-0.4-0.1-0.6-0.1c-0.7,0-1.4,0.5-1.7,1.2
		c-0.3,0.7-0.2,1.5,0.4,2c5.2,5.4,9.4,10.9,12.8,16.8c2,3.5,5.8,5.7,9.9,5.7H135v-0.9l0-0.1C131,202.6,119.8,199.2,104.4,194.4z"/>
	<path class="st6" d="M79.4,185.1c-1.1-0.9-2.1-1.7-3-2.4c-1.6-1.2-3-2.6-4.1-4l0,0l0,0c-1.6-2.1-2.6-4.4-3-6.8
		c-0.1-0.7-0.7-1.2-1.4-1.2c-0.4,0-0.8,0.2-1,0.5c-8.2,9.3-12.5,17.3-13.1,24.5c-0.5,5.4,1.1,10.1,4.8,14.5l1.3,1.6
		c3.5,4.1,8.6,6.5,14,6.5h34.5l-0.4-0.7C99.8,201.8,87,191.3,79.4,185.1z"/>
	<path class="st9" d="M164.1,76.1C161,33.6,125.4,0,82.2,0C41,0,6.9,30.4,0.9,69.9c0,0,0,0.1,0,0.1C0.3,73.9,0,78,0,82.2v133.1
		c0,3.9,3.2,7.1,7.1,7.1h104.2c0,0,0,0,0,0c0,0,0,0,0,0h46c3.9,0,7.1-3.2,7.1-7.1V82.2C164.3,80.7,164.2,76.6,164.1,76.1z M6.5,65.2
		C14.2,30.6,45.2,4.6,82.2,4.6c39.1,0,71.5,29,76.8,66.7c0.3,1.8-1.2,3.5-3.1,3.5h-6.7c-2.2,0-4.4,0.1-6.6,0.3
		c-1.6,0.2-3.1-1-3.4-2.6c-4.6-27.4-28.7-48.2-57-48.2c-26.3,0-49.2,17.8-55.9,42.9c-0.3,1.1-1.3,1.9-2.5,1.8l-15-0.9
		C7.2,68.1,6.2,66.7,6.5,65.2z M82.2,48.8c-14.5,0-27.3,9.6-31.7,23.1c0,0,0,0,0,0c-0.6,2.1-2.8,1.3-2.8,1.3l0,0
		c-5.1-2.1-10.4-3.3-15.9-3.6l0,0c-1-0.1-1-1.1-0.8-1.7C37.3,45.1,58.1,29,82.2,29c26.8,0,49.5,20.2,52.7,46.5
		c0.1,0.4-0.2,0.8-0.7,0.9c-6.1,1.3-12,3.5-17.6,6.5c-0.6,0.3-1.2-0.1-1.2-0.7c0,0,0,0,0,0C115.5,63.8,100.5,48.8,82.2,48.8z
		 M76.6,136.7c-0.6-4.5-3.6-8.1-6.2-10.4c-0.8-0.8-0.3-2.2,0.8-2.2h9.3c10.2,0,19.6,2.9,20.9,6.4c0.7,1.9-1.1,4.4-3,6.3l-0.9,0.8
		c-2,1.8-4.5,3.9-7.5,6.3c-15.4,12.8-38.8,32.2-40.5,51.3c0,0.5-0.1,1-0.1,1.5c0,0.7-0.8,0.9-1.3,0.4c-4.6-5.7-6.6-11-5.9-16.4
		c1.3-10.6,12.9-19.3,21.4-25.7c3.2-2.4,5.9-4.4,7.8-6.3C75.5,145,77.1,140.9,76.6,136.7z M122.6,177.3c0.4,0.9,1.2,1.4,2.1,1.4
		c0.3,0,0.6-0.1,0.9-0.2c0.3-0.1,5.1-2.3,8.9-8.2v4.1c0,16.6-10.3,21.3-10.8,21.5c-0.4,0.2-0.7,0.5-1,0.8c-5.1-2.6-11-4.4-17.2-6.3
		c-6.7-2.1-13.6-4.2-20.6-7.5c-2.3-1.1-4.2-2.2-5.8-3.4c-1.6-1.4-2.9-2.5-3.6-3.4c0,0,0,0-0.1-0.1c-1.2-1.5-1.9-3.1-2.1-4.7
		c0,0,0,0,0,0c-0.2-1.2,0.9-2.3,2.1-2.3h54.3c-2.8,3.8-5.8,5.2-6.1,5.3C122.6,174.8,122.1,176.1,122.6,177.3z M132.8,204.2
		c-1.7-1.9-3.5-3.5-5.6-4.9c1.8-1.1,4.8-3.4,7.3-7.3v11.6C134.5,204.5,133.4,204.9,132.8,204.2z M29.3,150.6c-0.1,0-3.3-1.5-5.6-5.9
		h33.6c1.6,0,2,2.2,0.5,2.7c-3.1,1.3-6.4,2.4-9.2,3.4c-1.5,0.5-3,1-4.3,1.6c-12.8,4.7-17.4,11.9-19.1,17.2c-0.3,0.9-1.3,1.3-2.1,0.8
		c0,0,0,0,0,0c-0.9-0.6-1.5-1.6-1.5-2.7v-17.8c2.7,3.5,5.7,4.9,6,5c0.3,0.1,0.6,0.2,0.9,0.2c0.9,0,1.8-0.5,2.1-1.4
		C31,152.5,30.5,151.1,29.3,150.6z M31.5,167c2.3-3.5,6.5-7.4,14.3-10.2c1.4-0.5,2.8-1,4.3-1.5c4-1.4,8-2.8,11.7-4.4
		c-0.3,0.2-0.5,0.4-0.8,0.6c-9.2,6.9-21.7,16.3-23.2,28.8c-0.1,0.4-0.1,0.8-0.1,1.2c-0.1,1-1.3,1.5-2,0.7l-3.3-3.9c0,0,0,0,0,0
		C29.7,175,29.2,170.5,31.5,167z M65.9,140.1H53.4c-1.5,0-2.8-1.2-2.8-2.8v-5.2c2.7,3.5,5.7,4.9,6,5c0.3,0.1,0.6,0.2,0.9,0.2
		c0.9,0,1.8-0.5,2.1-1.4c0.5-1.2,0-2.5-1.2-3c-0.1,0-7.8-3.5-7.8-15.8v-1c1.1,0.8,2.2,1.7,3.3,2.6c0.8,0.8,1.5,1.3,1.8,1.5
		c5.6,4.7,10.7,9.8,13.2,15.2C70,137.5,68.4,140.1,65.9,140.1z M63.3,115.6c-2,1.2-4.5,1.1-6.3-0.4l-0.1-0.1
		c-2.2-2.1-5.9-6.7-6.2-14.5c2.8,3.3,6,4.2,6.2,4.3c0.2,0.1,0.4,0.1,0.6,0.1c1,0,1.9-0.7,2.2-1.7c0.3-1.2-0.4-2.5-1.6-2.9
		c-0.1,0-7.5-2.2-7.5-14.2c0-1.2-0.9-2.3-2.2-2.4c-1.3-0.1-2.4,1-2.4,2.3c0,10.2-5.3,13.1-7.3,14.2l-0.2,0.1c0,0-0.1,0.1-0.1,0.1
		c-0.6-0.6-1.1-1.1-1.6-1.7c-4.1-4.8-10.5-12.9-13.3-17.3c-1.4-2.2-3.1-4.2-5-5.9c-0.8-0.8-0.2-2.2,0.9-2.1l7.6,0.4
		c0.1,0,0.7,0,1,0.1l2.4,0.1c6,0.2,11.7,1.6,17.1,4.1l40.5,18.5c1.5,0.7,1.6,2.7,0.2,3.5L63.3,115.6z M46,100.4
		c-0.1,2.2-0.4,4.1-0.8,5.7c-1.1-0.8-2.1-1.6-3.1-2.4C43.2,103,44.6,102,46,100.4z M56.4,77.1c-1.4-0.6-2-2.2-1.6-3.6
		c3.7-11.7,14.8-20.1,27.4-20.1c15.8,0,28.7,12.9,28.7,28.7c0,0.6,0,1.1,0,1.7c-0.1,1.7-1,3.2-2.4,4l-9.6,5.9
		c-1.6,1-3.6,1.1-5.3,0.3L56.4,77.1z M4.6,82.2c0-2.4,0.1-4.8,0.3-7.2c0.1-0.8,0.9-1.4,1.7-1.1c5.3,1.8,9.9,5.4,13,10.2
		c3,4.7,9.4,12.9,13.7,17.8c2.4,2.7,6,5.6,10,8.7c-2.2,3.5-4.8,4.8-5.1,4.9c-1.2,0.5-1.7,1.9-1.2,3c0.4,0.9,1.2,1.4,2.1,1.4
		c0.3,0,0.6-0.1,0.9-0.2c0.2-0.1,3.2-1.4,6-5v2.4c0,12.1-7.4,15.6-7.8,15.8c-1.2,0.5-1.7,1.9-1.2,3c0.4,0.9,1.2,1.4,2.1,1.4
		c0.3,0,0.6-0.1,0.9-0.2c0.2-0.1,3.2-1.4,6-5v5.5c0,1.4-1.1,2.5-2.5,2.5H22.1c-0.3-1.5-0.5-3.3-0.5-5.3v-2.4c2.7,3.5,5.7,4.9,6,5
		c0.3,0.1,0.6,0.2,0.9,0.2c0.9,0,1.8-0.5,2.1-1.4c0.5-1.2,0-2.5-1.2-3c-0.1,0-7.7-3.4-7.8-15.5c2.7,3.5,5.7,4.9,6,5
		c0.3,0.1,0.6,0.2,0.9,0.2c0.9,0,1.8-0.5,2.1-1.4c0.5-1.2,0-2.5-1.2-3c-0.1,0-7.7-3.4-7.8-15.7c0-1.2-0.9-2.3-2.2-2.4
		c-1.3-0.1-2.4,1-2.4,2.3c0,12.1-7.4,15.6-7.8,15.8c-1.2,0.5-1.7,1.9-1.2,3c0.4,0.9,1.2,1.4,2.1,1.4c0.3,0,0.6-0.1,0.9-0.2
		c0.2-0.1,3.2-1.4,6-5c-0.1,11.9-7.4,15.4-7.8,15.5c-1.2,0.5-1.7,1.9-1.2,3c0.4,0.9,1.2,1.4,2.1,1.4c0.3,0,0.6-0.1,0.9-0.2
		c0.2-0.1,3.2-1.4,6-5v2.4c0,2-0.2,3.7-0.5,5.3H6.9c-1.2,0-2.3-1-2.3-2.3V82.2z M4.6,146.4c0-0.9,0.7-1.7,1.7-1.7h8.4
		c-2.2,4.3-5.4,5.8-5.6,5.9c-1.2,0.5-1.7,1.9-1.2,3c0.4,0.9,1.2,1.4,2.1,1.4c0.3,0,0.6-0.1,0.9-0.2c0.2-0.1,3.2-1.4,6-5v15.9
		c0,0.8-0.8,1.3-1.5,1.1c0,0,0,0,0,0l-8.6-2.7c-1.3-0.4-2.2-1.6-2.2-2.9V146.4z M54.7,217.7H7.1c-1.3,0-2.4-1.1-2.4-2.4v-41.8
		c0-2.5,2.4-4.3,4.8-3.5l4.6,1.4c1.2,0.4,4.1,1.6,5.2,2.1c3.7,1.9,7,4.5,9.7,7.7l15.9,18.9c0,0,0,0,0,0l0,0l10.7,12.7c0,0,0,0,0,0
		l0,0l1,1.2C57.6,215.4,56.6,217.7,54.7,217.7z M73.9,217.7c-5.3,0-10.2-2.3-13.6-6.3l-1.3-1.6c-3.6-4.3-5.1-8.9-4.7-14.1
		c0.7-8,6.1-16.4,13-24.2c0.5-0.6,1.5-0.3,1.6,0.5l0,0c0.3,2.5,1.4,4.8,3,7c0,0,0,0,0,0c0,0,0,0,0.1,0.1c1.1,1.4,2.5,2.7,4.2,4
		c0.9,0.7,1.9,1.5,2.9,2.4c7.7,6.3,20.4,16.7,28.5,32.2H73.9z M119.3,217.7c-3.9,0-7.5-2.1-9.5-5.4c-3.8-6.6-8.4-12.2-12.9-16.9
		c-1-1.1,0.1-2.8,1.5-2.3c2,0.6,3.9,1.2,5.8,1.8c14.9,4.6,26,8,30.1,21.7c0.1,0.3,0.1,1.1-0.9,1.1H119.3z M159.7,215.2
		c0,1.3-1.1,2.4-2.4,2.4h-16.9c-0.5,0-1-0.4-1.1-0.9l0,0V192c3.8,5.9,8.6,8.1,8.9,8.2c0.3,0.1,0.6,0.2,0.9,0.2
		c0.9,0,1.8-0.5,2.1-1.4c0.5-1.2,0-2.5-1.2-3c-0.1,0-10.7-4.8-10.7-21.5v-4.1c3.8,5.9,8.6,8.1,8.9,8.2c0.3,0.1,0.6,0.2,0.9,0.2
		c0.9,0,1.8-0.5,2.1-1.4c0.5-1.2,0-2.5-1.2-3c-0.1,0-3.2-1.4-6-5.3h12.3c1.9,0,3.5,1.5,3.5,3.5V215.2z M159.7,160.8
		c0,2-1.6,3.6-3.6,3.6h-14.8c-1.3-3-2.1-6.8-2.1-11.6v-3.7c3.4,5.1,7.4,6.6,7.7,6.7c0.3,0.1,0.5,0.1,0.8,0.1c0.9,0,1.8-0.6,2.2-1.5
		c0.4-1.2-0.2-2.5-1.4-3c-0.1,0-9.2-3.5-9.3-20.1c0-1.2-0.9-2.3-2.2-2.4c-1.3-0.1-2.4,1-2.4,2.3c0,16.4-8.9,20-9.3,20.2
		c-1.2,0.4-1.8,1.8-1.4,2.9c0.3,0.9,1.2,1.5,2.2,1.5c0.3,0,0.5,0,0.8-0.1c0.3-0.1,4.3-1.6,7.7-6.7v3.7c0,4.8-0.9,8.6-2.1,11.6H81
		c-1.8,0-2.7-2.3-1.4-3.5l21.2-19.9c0.3-0.3,0.5-0.5,0.8-0.8l16.9-15.8c9.5-8.9,20.2-16.3,31.9-21.9l4.9-2.4c2-1,4.3,0.5,4.3,2.7
		V160.8z M159.7,88.7c0,2.5-1.5,4.9-3.7,6l-7.5,3.6c-9.5,4.6-18.4,10.2-26.5,16.9c-3.4,2.8-7.6,4.3-12,4.3c-12.7,0-38.4,0-38.4,0
		c-1.7,0-2.3-2.2-0.9-3l26.8-16.5c0,0,0,0,0,0l16.1-9.9c0,0,0.1,0,0.1-0.1l1.5-0.9c10.2-6.3,21.9-9.6,33.8-9.6h8
		c1.4,0,2.6,1.1,2.6,2.5c0,0.1,0,0.1,0,0.2V88.7z"/>
</g>
<g>
	<g>
		<path class="st10" d="M226.6,203c-0.7-0.7-1.5-1-2.3-0.9c-0.8,0.1-1.5,0.4-2.1,0.9c-1,0.9-2.3,1.7-3.9,2.6
			c-1.5,0.8-3.4,1.2-5.7,1.2c-3.2,0-5.6-1-7.4-3c-1.8-2-2.7-4.8-2.7-8.1v-17.4c0-1.5,0.2-3,0.7-4.4c0.5-1.4,1.1-2.6,2-3.6
			c0.9-1,1.9-1.8,3.1-2.3c1.2-0.6,2.6-0.8,4.2-0.8c2.3,0,4.2,0.4,5.5,1.2c1.4,0.8,2.4,1.5,3.1,2.1c0.8,0.7,1.5,1,2.2,1
			c0.7,0,1.3-0.4,2-1l1.9-1.8c1.4-1.4,1.4-3,0-4.3c-0.6-0.6-1.4-1.3-2.3-1.9c-0.9-0.7-2-1.3-3.3-1.9c-1.2-0.5-2.6-1-4.1-1.4
			c-1.5-0.4-3.2-0.5-5-0.5c-2.7,0-5.3,0.5-7.6,1.5c-2.3,1-4.4,2.4-6.1,4.1c-1.7,1.7-3.1,3.8-4,6.3c-1,2.4-1.5,5.1-1.5,7.9v17.4
			c0,2.9,0.5,5.6,1.5,8c1,2.4,2.3,4.5,4,6.3c1.7,1.7,3.8,3.1,6.1,4c2.3,1,4.9,1.4,7.6,1.4c3.8,0,6.9-0.6,9.3-1.9
			c2.4-1.2,4.5-2.7,6.2-4.5c0.6-0.5,0.9-1.2,0.9-2c0.1-0.8-0.2-1.6-0.9-2.3L226.6,203z"/>
		<path class="st10" d="M319,159.2h-2.8c-1,0-1.7,0.3-2.3,0.8c-0.6,0.6-0.9,1.3-0.9,2.3l0,32.4l-19.5-33.2c-0.5-0.9-1.1-1.5-1.7-1.8
			c-0.7-0.3-1.4-0.5-2.4-0.5h-3.2c-0.9,0-1.7,0.3-2.3,0.8c-0.6,0.6-0.9,1.3-0.9,2.3v49.1c0,0.9,0.3,1.7,0.9,2.3
			c0.6,0.6,1.3,0.8,2.3,0.8h2.8c0.9,0,1.7-0.3,2.3-0.8c0.6-0.6,0.9-1.3,0.9-2.3l0-34.8l20.5,35.2c0.5,0.9,1,1.5,1.6,1.9
			c0.6,0.5,1.4,0.8,2.3,0.8h2.4c1,0,1.7-0.3,2.3-0.8c0.6-0.6,0.9-1.3,0.9-2.3v-49.1c0-0.9-0.3-1.7-0.9-2.3
			C320.7,159.5,319.9,159.2,319,159.2z"/>
		<path class="st10" d="M364.2,159.2h-2.8c-0.9,0-1.7,0.3-2.3,0.8c-0.6,0.6-0.9,1.3-0.9,2.3v10.3c0,1.5-0.2,2.9-0.6,4.3
			c-0.4,1.3-1,2.4-1.8,3.4c-0.8,0.9-1.8,1.7-3,2.3c-1.2,0.6-2.7,0.8-4.4,0.8s-3.2-0.3-4.4-0.8c-1.2-0.6-2.2-1.3-3-2.3
			c-0.8-0.9-1.4-2.1-1.8-3.4c-0.4-1.3-0.6-2.8-0.6-4.3v-10.3c0-0.9-0.3-1.7-0.9-2.3c-0.6-0.6-1.3-0.8-2.3-0.8h-2.8
			c-1,0-1.7,0.3-2.3,0.8c-0.6,0.6-0.9,1.3-0.9,2.3v10.3c0,4.7,1.2,8.8,3.7,12c2.5,3.3,5.9,5.5,10.2,6.7c0.3,0.1,0.6,0.3,0.6,1.1v19
			c0,0.9,0.3,1.7,0.9,2.3c0.6,0.6,1.3,0.8,2.3,0.8h2.8c0.9,0,1.7-0.3,2.3-0.8c0.6-0.6,0.9-1.3,0.9-2.3v-19c0-0.3,0.1-0.6,0.2-0.8
			c0-0.1,0.1-0.2,0.4-0.3c4.2-1.1,7.5-3.4,9.9-6.7c2.4-3.3,3.6-7.4,3.6-12v-10.3c0-0.9-0.3-1.7-0.9-2.3
			C365.9,159.5,365.2,159.2,364.2,159.2z"/>
		<path class="st10" d="M407.8,163.7c-1.8-1.6-3.9-2.9-6.3-3.9c-4.8-1.9-11-1.8-15.7,0c-2.4,0.9-4.5,2.2-6.3,3.9
			c-1.8,1.6-3.2,3.7-4.1,6c-1,2.3-1.5,4.9-1.5,7.7v19c0,2.8,0.5,5.4,1.5,7.7c1,2.3,2.4,4.3,4.1,6c1.8,1.6,3.9,2.9,6.3,3.9
			c2.4,0.9,5,1.4,7.9,1.4c2.8,0,5.5-0.5,7.9-1.4c2.4-0.9,4.5-2.2,6.3-3.9c1.8-1.6,3.2-3.7,4.1-6c1-2.3,1.5-4.9,1.5-7.7v-19
			c0-2.8-0.5-5.4-1.5-7.7C411,167.4,409.6,165.3,407.8,163.7z M404.3,196.4c0,3-0.9,5.5-2.7,7.4c-1.8,1.9-4.4,2.9-7.9,2.9
			s-6.1-1-7.9-2.9c-1.8-2-2.7-4.5-2.7-7.4v-19c0-3,0.9-5.5,2.7-7.4c1.8-1.9,4.4-2.9,7.9-2.9s6.1,1,7.9,2.9c1.8,2,2.7,4.5,2.7,7.4
			V196.4z"/>
		<path class="st10" d="M458.3,159.2h-2.8c-1,0-1.7,0.3-2.3,0.8c-0.6,0.6-0.9,1.3-0.9,2.3l0,32.4l-19.5-33.2
			c-0.5-0.9-1.1-1.5-1.7-1.8c-0.7-0.3-1.4-0.5-2.4-0.5h-3.2c-0.9,0-1.7,0.3-2.3,0.8c-0.6,0.6-0.9,1.3-0.9,2.3v49.1
			c0,0.9,0.3,1.7,0.9,2.3c0.6,0.6,1.3,0.8,2.3,0.8h2.8c0.9,0,1.7-0.3,2.3-0.8c0.6-0.6,0.9-1.3,0.9-2.3l0-34.8l20.5,35.2
			c0.5,0.9,1,1.5,1.6,1.9c0.6,0.5,1.4,0.8,2.3,0.8h2.4c1,0,1.7-0.3,2.3-0.8c0.6-0.6,0.9-1.3,0.9-2.3v-49.1c0-0.9-0.3-1.7-0.9-2.3
			C460,159.5,459.3,159.2,458.3,159.2z"/>
		<path class="st10" d="M529.5,190.1c-0.4-0.9-0.1-1.2,0.3-1.4c2.3-1.3,4.3-3.1,5.8-5.5c1.5-2.4,2.3-5.2,2.3-8.3
			c0-2.2-0.4-4.3-1.2-6.2c-0.8-1.9-1.9-3.6-3.4-5c-1.4-1.4-3.1-2.5-5.1-3.3c-2-0.8-4.1-1.2-6.3-1.2h-16.5c-0.9,0-1.7,0.3-2.3,0.8
			c-0.6,0.6-0.9,1.3-0.9,2.2v48.8c0,0.9,0.3,1.7,0.9,2.2c0.6,0.6,1.3,0.8,2.3,0.8h2.8c0.9,0,1.7-0.3,2.3-0.8
			c0.6-0.6,0.9-1.3,0.9-2.2l0.1-20.1h7.6c0.5,0,0.8,0.2,1,0.7l9.5,20c1,2.1,2.5,2.6,3.6,2.6h3.7c1.3,0,2-0.6,2.3-1.2
			c0.4-0.8,0.4-1.7-0.1-2.7L529.5,190.1z M528.2,178c-0.4,0.9-1,1.7-1.7,2.4c-0.7,0.7-1.5,1.2-2.4,1.5c-0.9,0.4-1.8,0.5-2.8,0.5
			l-10-0.1l0.1-14.6h9.9c1,0,1.9,0.2,2.8,0.5c0.9,0.3,1.7,0.8,2.4,1.4c0.7,0.6,1.2,1.4,1.6,2.3c0.4,0.9,0.6,1.9,0.6,3
			C528.8,176,528.6,177,528.2,178z"/>
		<path class="st10" d="M576.9,205.7l-22.2-0.1l0.1-15h18.9c0.9,0,1.7-0.3,2.3-0.8c0.6-0.6,0.9-1.3,0.9-2.2v-2.4
			c0-0.9-0.3-1.7-0.9-2.2c-0.6-0.6-1.3-0.8-2.3-0.8l-18.9-0.1l0.1-14.2h20.5c0.9,0,1.7-0.3,2.3-0.8c0.6-0.6,0.9-1.3,0.9-2.2v-2.4
			c0-0.9-0.3-1.7-0.9-2.2c-0.6-0.6-1.3-0.8-2.3-0.8h-26.5c-0.9,0-1.7,0.3-2.3,0.8c-0.6,0.6-0.9,1.3-0.9,2.2v48.8
			c0,0.9,0.3,1.7,0.9,2.2c0.6,0.6,1.3,0.8,2.3,0.8h28.1c0.9,0,1.7-0.3,2.3-0.8c0.6-0.6,0.9-1.3,0.9-2.2v-2.4c0-0.9-0.3-1.7-0.9-2.2
			C578.7,206,577.9,205.7,576.9,205.7z"/>
		<path class="st10" d="M615.6,188.9c-1.2-1.3-2.7-2.5-4.5-3.6c-1.7-1.1-3.7-2.1-6-3c-1.6-0.7-3-1.3-4.1-2c-1.1-0.6-2-1.3-2.7-2
			c-0.7-0.7-1.1-1.4-1.5-2.2c-0.3-0.8-0.5-1.7-0.5-2.8c0-0.8,0.2-1.5,0.5-2.2c0.4-0.7,0.9-1.4,1.5-1.9c0.7-0.6,1.5-1,2.4-1.4
			c0.9-0.4,1.9-0.5,3-0.5c1.6,0,3,0.4,4.4,1.2c1.4,0.8,2.4,1.5,3.1,2.1c0.8,0.7,1.5,1,2.2,1c0.7,0,1.3-0.4,2-1l1.8-1.9
			c1.4-1.4,1.4-2.9,0-4.3c-1.3-1.3-3.1-2.6-5.3-3.7c-2.3-1.2-5-1.8-8.2-1.8c-2.4,0-4.7,0.4-6.7,1.2c-2,0.8-3.7,1.9-5.1,3.3
			c-1.4,1.4-2.5,2.9-3.2,4.7c-0.7,1.8-1.1,3.6-1.1,5.5c0,2.2,0.3,4.2,1,6c0.6,1.7,1.6,3.3,2.8,4.7c1.2,1.4,2.7,2.6,4.4,3.7
			c1.6,1.1,3.5,2.1,5.6,3c3.1,1.5,5.4,2.9,6.8,4.3c1.3,1.3,2,3,2,5.2c0,1.9-0.7,3.4-2.2,4.7c-1.5,1.3-3.5,1.9-5.9,1.9
			c-1.1,0-2.1-0.1-2.9-0.3c-0.9-0.2-1.6-0.5-2.3-0.8c-0.6-0.3-1.2-0.7-1.7-1.1c-0.5-0.4-1-0.8-1.4-1.2c-0.6-0.5-1.3-0.8-2.1-0.9
			c-0.8-0.1-1.6,0.2-2.3,0.9l-1.8,1.7c-0.7,0.7-1,1.4-0.9,2.3c0.1,0.8,0.4,1.5,0.9,2c1.6,1.7,3.5,3.2,5.6,4.3
			c2.2,1.1,5.2,1.7,8.9,1.7c2.3,0,4.6-0.4,6.7-1.3c2.1-0.8,3.9-2,5.5-3.4c1.6-1.4,2.8-3,3.7-4.9c0.9-1.9,1.4-3.9,1.4-6
			c0-2.2-0.3-4.2-1-6C617.8,191.8,616.9,190.2,615.6,188.9z"/>
		<path class="st10" d="M660.5,163.7c-1.7-1.6-3.8-2.9-6.2-3.8c-2.4-0.9-5-1.4-7.8-1.4c-2.8,0-5.4,0.5-7.8,1.4
			c-2.4,0.9-4.5,2.2-6.2,3.8c-1.8,1.6-3.1,3.6-4.1,6c-1,2.3-1.5,4.9-1.5,7.6v18.9c0,2.8,0.5,5.3,1.5,7.6c1,2.3,2.4,4.3,4.1,6
			c1.8,1.6,3.8,2.9,6.2,3.8c2.4,0.9,5,1.4,7.8,1.4c2.8,0,5.4-0.5,7.8-1.4c2.4-0.9,4.5-2.2,6.2-3.8c1.8-1.6,3.1-3.6,4.1-6
			c1-2.3,1.5-4.9,1.5-7.6v-18.9c0-2.8-0.5-5.3-1.5-7.6C663.6,167.3,662.2,165.3,660.5,163.7z M656.9,196.2c0,3-0.9,5.4-2.7,7.4
			c-1.8,1.9-4.4,2.9-7.8,2.9c-3.4,0-6-1-7.8-2.9c-1.8-2-2.7-4.4-2.7-7.4v-18.9c0-2.9,0.9-5.4,2.7-7.4c1.8-1.9,4.4-2.9,7.8-2.9
			c3.4,0,6,1,7.8,2.9c1.8,2,2.7,4.4,2.7,7.4V196.2z"/>
		<path class="st10" d="M702.2,190.1c-0.4-0.9-0.1-1.2,0.3-1.4c2.3-1.3,4.3-3.1,5.8-5.5c1.5-2.4,2.3-5.2,2.3-8.3
			c0-2.2-0.4-4.3-1.2-6.2c-0.8-1.9-1.9-3.6-3.4-5c-1.4-1.4-3.1-2.5-5.1-3.3c-2-0.8-4.1-1.2-6.3-1.2h-16.5c-0.9,0-1.7,0.3-2.3,0.8
			c-0.6,0.6-0.9,1.3-0.9,2.2v48.8c0,0.9,0.3,1.7,0.9,2.2c0.6,0.6,1.3,0.8,2.3,0.8h2.8c0.9,0,1.7-0.3,2.3-0.8
			c0.6-0.6,0.9-1.3,0.9-2.2l0.1-20.1h7.6c0.5,0,0.8,0.2,1,0.7l9.5,20c1,2.1,2.5,2.6,3.6,2.6h3.7c1.3,0,2-0.6,2.3-1.2
			c0.4-0.8,0.4-1.7-0.1-2.7L702.2,190.1z M700.9,178c-0.4,0.9-1,1.7-1.7,2.4c-0.7,0.7-1.5,1.2-2.4,1.5c-0.9,0.4-1.8,0.5-2.8,0.5
			l-10-0.1l0.1-14.6h9.9c1,0,1.9,0.2,2.8,0.5c0.9,0.3,1.7,0.8,2.4,1.4c0.7,0.6,1.2,1.4,1.6,2.3c0.4,0.9,0.6,1.9,0.6,3
			C701.5,176,701.3,177,700.9,178z"/>
		<path class="st10" d="M751.5,160.1c-0.6-0.6-1.3-0.8-2.3-0.8h-33.3c-0.9,0-1.7,0.3-2.3,0.8c-0.6,0.6-0.9,1.3-0.9,2.2v2.4
			c0,0.9,0.3,1.7,0.9,2.2c0.6,0.6,1.3,0.8,2.3,0.8l12.1,0.1v43.3c0,0.9,0.3,1.7,0.9,2.2c0.6,0.6,1.3,0.8,2.3,0.8h2.8
			c0.9,0,1.7-0.3,2.3-0.8c0.6-0.6,0.9-1.3,0.9-2.2l0.1-43.4h12c0.9,0,1.7-0.3,2.3-0.8c0.6-0.6,0.9-1.3,0.9-2.2v-2.4
			C752.4,161.4,752.1,160.6,751.5,160.1z"/>
		<path class="st10" d="M261.9,161.9c-0.3-1-0.8-1.7-1.4-2.1c-0.6-0.4-1.3-0.5-2.2-0.5h-2.7h-2.7c-0.9,0-1.6,0.2-2.2,0.5
			c-0.6,0.4-1.1,1.1-1.4,2.1L233,211.4c-0.3,1-0.2,1.7,0.2,2.3c0.4,0.6,1.2,0.8,2.2,0.8h4c1.8,0,3-0.8,3.5-2.4l2.8-9.3h19.8l2.8,9.3
			c0.5,1.6,1.7,2.4,3.5,2.4h4c1,0,1.8-0.3,2.2-0.8c0.4-0.6,0.5-1.3,0.2-2.3L261.9,161.9z M261.1,194.3h-12.9l0.8-2.6
			c0-0.2,0-0.4,0.1-0.6l6.4-20.9c0,0,0,0,0-0.1c0,0,0,0,0,0.1l6.4,20.9c0.1,0.3,0.1,0.5,0.1,0.6l0.8,2.6H261.1z"/>
	</g>
	<g>
		<path class="st10" d="M293.7,126.7l-19.7-0.1V60.7c0-1.4-0.4-2.6-1.3-3.4c-0.9-0.8-2-1.3-3.4-1.3h-4.2c-1.4,0-2.6,0.4-3.4,1.3
			c-0.8,0.8-1.3,2-1.3,3.4v74.2c0,1.4,0.4,2.6,1.3,3.4c0.8,0.8,2,1.3,3.4,1.3h28.5c1.4,0,2.6-0.4,3.4-1.3c0.8-0.8,1.3-2,1.3-3.4
			v-3.6c0-1.4-0.4-2.5-1.3-3.4C296.2,127.1,295.1,126.7,293.7,126.7z"/>
		<path class="st10" d="M353.8,126.7l-33-0.1l0.1-22.9H349c1.4,0,2.6-0.4,3.4-1.3c0.8-0.8,1.3-2,1.3-3.4v-3.6c0-1.4-0.4-2.6-1.3-3.4
			c-0.8-0.8-2-1.3-3.4-1.3l-28.2-0.1l0.1-21.7h30.5c1.4,0,2.6-0.4,3.4-1.3c0.8-0.8,1.3-2,1.3-3.4v-3.6c0-1.4-0.4-2.6-1.3-3.4
			c-0.9-0.8-2-1.3-3.4-1.3h-39.5c-1.4,0-2.6,0.4-3.4,1.3c-0.8,0.8-1.3,2-1.3,3.4v74.2c0,1.4,0.4,2.6,1.3,3.4c0.8,0.8,2,1.3,3.4,1.3
			h41.9c1.4,0,2.6-0.4,3.4-1.3c0.9-0.8,1.3-2,1.3-3.4v-3.6c0-1.4-0.4-2.5-1.3-3.4C356.4,127.1,355.2,126.7,353.8,126.7z"/>
		<path class="st10" d="M423.8,56h-4.2c-1.4,0-2.6,0.4-3.4,1.3c-0.8,0.8-1.3,2-1.3,3.4l0,49l-28.8-50.2c-0.7-1.3-1.6-2.2-2.6-2.8
			c-1-0.5-2.1-0.8-3.5-0.8h-4.7c-1.4,0-2.6,0.4-3.4,1.3c-0.8,0.8-1.3,2-1.3,3.4v74.2c0,1.4,0.4,2.6,1.3,3.4c0.8,0.8,2,1.3,3.4,1.3
			h4.2c1.4,0,2.6-0.4,3.4-1.3c0.8-0.8,1.3-2,1.3-3.4l-0.1-52.6l30.4,53.2c0.8,1.3,1.5,2.3,2.3,2.9c0.9,0.8,2,1.2,3.4,1.2h3.6
			c1.4,0,2.6-0.4,3.4-1.3c0.8-0.8,1.3-2,1.3-3.4V60.7c0-1.4-0.4-2.6-1.3-3.4C426.4,56.4,425.3,56,423.8,56z"/>
		<path class="st10" d="M536.4,56h-4.2c-1.4,0-2.6,0.4-3.4,1.3c-0.8,0.8-1.3,2-1.3,3.4v51.5c0,4.5-1.2,8.3-3.5,11.3
			c-2.3,2.9-5.9,4.4-10.9,4.4c-2.5,0-4.8-0.4-6.6-1.2c-1.8-0.8-3.3-1.9-4.4-3.2c-1.2-1.4-2-3-2.6-4.9c-0.6-1.9-0.9-4.1-0.9-6.3V60.7
			c0-1.4-0.4-2.6-1.3-3.4c-0.9-0.8-2-1.3-3.4-1.3h-4.2c-1.4,0-2.6,0.4-3.4,1.3c-0.8,0.8-1.3,2-1.3,3.4v51.5c0,4.5-1.2,8.3-3.5,11.3
			c-2.3,2.9-6,4.4-10.9,4.4c-2.5,0-4.8-0.4-6.6-1.2c-1.8-0.8-3.3-1.9-4.4-3.2c-1.2-1.4-2-3-2.6-4.9c-0.6-1.9-0.9-4.1-0.9-6.3V60.7
			c0-1.4-0.4-2.6-1.3-3.4c-0.9-0.8-2-1.3-3.4-1.3h-4.2c-1.4,0-2.6,0.4-3.4,1.3c-0.8,0.8-1.3,2-1.3,3.4v51.5c0,4.2,0.7,8.1,2,11.6
			c1.3,3.5,3.2,6.6,5.7,9.1c2.4,2.5,5.4,4.5,8.9,5.9c3.4,1.4,7.3,2.1,11.5,2.1c4.6,0,8.6-0.8,11.9-2.4c3.2-1.6,6.1-3.8,8.5-6.7
			c0.2-0.2,0.5-0.5,0.8-0.5c0.2,0,0.6,0.2,1,0.6c1.2,1.2,2.4,2.4,3.7,3.5c1.3,1.1,2.8,2.1,4.5,3c1.6,0.8,3.5,1.5,5.5,1.9
			c2,0.5,4.3,0.7,6.8,0.7c4.2,0,8.1-0.7,11.5-2.1c3.4-1.4,6.4-3.4,8.9-5.9c2.5-2.5,4.4-5.5,5.7-9.1c1.3-3.5,2-7.4,2-11.6V60.7
			c0-1.4-0.4-2.6-1.3-3.4C538.9,56.4,537.8,56,536.4,56z"/>
		<path class="st10" d="M604,62.8c-2.6-2.5-5.7-4.4-9.3-5.9c-3.5-1.4-7.5-2.1-11.7-2.1c-4.2,0-8.1,0.7-11.7,2.1
			c-3.6,1.4-6.7,3.4-9.3,5.9c-2.6,2.5-4.7,5.5-6.1,9.1c-1.4,3.5-2.2,7.4-2.2,11.6v28.7c0,4.2,0.7,8.1,2.2,11.6
			c1.4,3.5,3.5,6.6,6.1,9.1c2.6,2.5,5.7,4.4,9.3,5.8c3.5,1.4,7.5,2.1,11.7,2.1c4.2,0,8.1-0.7,11.7-2.1c3.5-1.4,6.7-3.4,9.3-5.8
			c2.6-2.5,4.7-5.5,6.1-9.1c1.4-3.5,2.2-7.4,2.2-11.6V83.4c0-4.2-0.7-8.1-2.2-11.6C608.7,68.3,606.6,65.3,604,62.8z M598.7,83.4
			v28.7c0,4.5-1.4,8.3-4,11.2c-2.6,2.9-6.6,4.4-11.6,4.4c-5.1,0-9-1.5-11.6-4.4c-2.7-3-4-6.8-4-11.2V83.4c0-4.5,1.4-8.3,4-11.2
			c2.6-2.9,6.6-4.4,11.6-4.4c5.1,0,9,1.5,11.6,4.4C597.4,75.2,598.7,79,598.7,83.4z"/>
		<path class="st10" d="M674.6,62.8c-2.6-2.5-5.7-4.4-9.3-5.9c-3.5-1.4-7.5-2.1-11.7-2.1c-4.2,0-8.1,0.7-11.7,2.1
			c-3.6,1.4-6.7,3.4-9.3,5.9c-2.6,2.5-4.7,5.5-6.1,9.1c-1.4,3.5-2.2,7.4-2.2,11.6v28.7c0,4.2,0.7,8.1,2.2,11.6
			c1.4,3.5,3.5,6.6,6.1,9.1c2.6,2.5,5.7,4.4,9.3,5.8c3.5,1.4,7.5,2.1,11.7,2.1c4.2,0,8.1-0.7,11.7-2.1c3.5-1.4,6.7-3.4,9.3-5.8
			c2.6-2.5,4.7-5.5,6.1-9.1c1.4-3.5,2.2-7.4,2.2-11.6V83.4c0-4.2-0.7-8.1-2.2-11.6C679.3,68.3,677.2,65.3,674.6,62.8z M669.4,83.4
			v28.7c0,4.5-1.4,8.3-4,11.2c-2.6,2.9-6.6,4.4-11.6,4.4s-9-1.5-11.6-4.4c-2.7-3-4-6.8-4-11.2V83.4c0-4.5,1.4-8.3,4-11.2
			c2.6-2.9,6.6-4.4,11.6-4.4s9,1.5,11.6,4.4C668,75.2,669.4,79,669.4,83.4z"/>
		<path class="st10" d="M744,64.6c-2.6-2.6-5.9-4.8-9.6-6.3c-3.7-1.5-7.9-2.3-12.4-2.3h-21c-1.4,0-2.6,0.4-3.4,1.3
			c-0.8,0.8-1.3,2-1.3,3.4v74.2c0,1.4,0.4,2.6,1.3,3.4c0.8,0.8,2,1.3,3.4,1.3h21c4.5,0,8.7-0.8,12.4-2.3c3.8-1.5,7-3.6,9.6-6.3
			c2.6-2.6,4.7-5.8,6.2-9.5c1.4-3.6,2.2-7.6,2.2-11.8V85.8c0-4.2-0.7-8.2-2.2-11.8C748.7,70.4,746.7,67.2,744,64.6z M721.9,126.7
			l-12.1-0.1L710,69h12c2.5,0,4.8,0.4,6.9,1.1c2,0.7,3.8,1.8,5.3,3.3c1.5,1.4,2.6,3.2,3.5,5.3c0.8,2.1,1.2,4.5,1.2,7.1v23.9
			c0,2.7-0.4,5.2-1.2,7.3c-0.8,2.1-2,3.8-3.4,5.2c-1.5,1.4-3.3,2.5-5.3,3.2C726.7,126.3,724.4,126.7,721.9,126.7z"/>
		<path class="st10" d="M236.7,96.4l-0.2-0.1v0.1h-13.3c-1.4,0-2.6,0.4-3.4,1.3c-0.8,0.8-1.3,2-1.3,3.4v3.6c0,1.4,0.4,2.6,1.3,3.4
			c0.7,0.7,1.6,1,2.7,1.2h14v2c0,0.1,0,0.3,0,0.6v1c0,0.2,0,0.3,0,0.4v0.7h-0.1c-0.2,4-1.4,7.3-3.7,9.8c-2.5,2.7-6.3,4.1-11.4,4.1
			c-4.7,0-8.2-1.5-10.6-4.6c-2.5-3.1-3.7-7.2-3.7-12.3V84.6c0-2.3,0.3-4.6,1-6.7c0.7-2.1,1.7-3.9,3-5.4c1.3-1.5,2.9-2.7,4.7-3.6
			c1.8-0.8,3.9-1.3,6.3-1.3c3.4,0,6.2,0.6,8.1,1.8c2,1.2,3.6,2.3,4.6,3.2c1.2,1.1,2.3,1.6,3.3,1.5c1-0.1,2-0.6,3-1.6l2.8-2.8
			c1.8-1.8,1.8-4.7,0-6.5c-0.9-0.9-2.1-1.9-3.4-2.9c-1.4-1-3-2-4.8-2.8c-1.8-0.8-3.9-1.5-6.1-2c-2.2-0.5-4.7-0.8-7.4-0.8
			c-4,0-7.9,0.8-11.3,2.2c-3.5,1.5-6.5,3.6-9,6.2c-2.5,2.6-4.5,5.8-6,9.5c-1.4,3.7-2.2,7.7-2.2,12V111c0,4.3,0.7,8.4,2,12
			c1.4,3.7,3.3,6.9,5.8,9.5c2.5,2.6,5.5,4.7,8.9,6.1c3.4,1.5,7.2,2.2,11.2,2.2c4.2,0,8.1-0.7,11.6-2c3.5-1.3,6.6-3.2,9.1-5.7
			c2.5-2.4,4.5-5.4,5.9-8.9c1.4-3.4,2.1-7.3,2.1-11.5v-3.5v-1.5v-4.1c0-4-3.2-7.2-7.2-7.2H236.7z"/>
	</g>
</g>
</svg>
